# Blender 4.3.2
# www.blender.org
mtllib dom3.mtl
o dom3.low
v 3.865831 0.385238 14.709140
v 5.846228 81.199310 11.229363
v 5.851387 135.220871 11.229362
v 3.865831 0.385240 -14.709140
v 5.846228 81.199310 -11.229356
v 5.851387 135.220871 -11.229351
v 17.998478 147.511169 3.637361
v 17.998478 147.511169 -3.637349
v 17.870216 155.956207 3.587016
v 17.870214 155.956207 -3.587003
v -14.548393 123.581070 3.439082
v -14.548393 123.581070 -3.439071
v 17.092974 15.836802 4.440126
v 17.092974 15.836802 -4.440125
v 16.480553 68.798485 4.273625
v 16.480553 68.798485 -4.273621
v -13.538276 124.717705 10.212798
v -4.949426 133.790024 11.091249
v 14.762036 16.039923 7.796019
v 7.923114 7.122417 11.714373
v 7.748394 76.913147 11.249946
v 14.297026 68.539978 7.398414
v 15.868437 145.406006 7.209027
v 8.797418 138.234970 11.229380
v 9.256376 147.475449 14.709145
v 15.786202 153.873138 7.101251
v -12.273515 123.117180 7.122180
v -5.302480 133.208420 -14.709131
v -12.273513 126.327835 -7.122169
v 7.923114 7.122419 -11.714374
v 14.762035 16.039923 -7.796019
v 14.297027 68.539978 -7.398409
v 7.748394 76.913147 -11.249938
v 8.797419 138.234970 -11.229368
v 15.868437 145.406006 -7.209015
v 17.335695 155.425919 -10.115964
v 8.763353 146.971100 -11.091237
v -12.273513 123.117180 -7.122169
v 20.438623 158.504227 4.903053
v 20.438623 158.504227 -4.903039
v -16.951687 120.876740 4.903050
v -16.951687 120.876740 -4.903040
v -12.273515 126.327835 7.122180
v -5.302480 133.208420 14.709143
v 8.763355 146.971100 11.091250
v 17.335693 155.425919 10.115977
v -4.949426 133.790024 -11.091238
v -13.538276 124.717705 -10.212788
v 15.786202 153.873138 -7.101239
v 9.256376 147.475449 -14.709131
v 15.786202 150.662491 7.101251
v 15.786202 150.662491 -7.101239
v 8.763355 143.760452 11.091250
v 8.763353 143.760452 -11.091237
v -4.949426 130.579376 11.091249
v -4.949426 130.579376 -11.091238
v 17.870216 152.745544 3.587015
v 17.870214 152.745544 -3.587003
v -14.548393 120.370415 3.439081
v -14.548393 120.370415 -3.439072
v -16.951687 0.385239 4.903046
v -16.951687 0.385239 -4.903047
v 18.875153 18.313040 4.903048
v 18.875153 18.313040 -4.903046
v -13.538274 0.385239 10.212797
v -5.302480 0.385238 14.709140
v 7.692905 7.865427 14.709140
v 15.772223 18.313040 10.115973
v -5.302480 0.385240 -14.709140
v -13.538276 0.385240 -10.212797
v 15.772223 18.313040 -10.115971
v 7.692905 7.865429 -14.709140
v 4.143558 0.243146 11.666419
v 4.143559 0.243146 -11.666419
v 1.346672 0.385239 -4.903047
v 1.624400 0.243146 -11.666419
v 1.624399 0.243146 11.666419
v 1.346672 0.385239 4.903046
v 14.573816 15.836802 4.440126
v 14.573816 15.836802 -4.440125
v 5.403955 7.122417 11.714373
v 12.242878 16.039923 7.796019
v 12.242876 16.039923 -7.796019
v 5.403955 7.122419 -11.714374
v 7.409699 76.682617 14.709145
v 5.846228 81.199310 14.709145
v 5.846228 135.225906 14.709144
v 7.409699 76.682617 -14.709137
v 5.846228 81.199310 -14.709137
v 5.846228 135.225906 -14.709132
v 20.438623 149.992020 4.903053
v 20.438623 149.992020 -4.903040
v 18.875153 66.259476 4.903049
v 18.875153 66.259476 -4.903044
v 15.772223 66.259476 10.115973
v 7.692905 76.158165 14.709144
v 9.256376 138.721756 14.709144
v 17.335695 146.913712 10.115977
v 7.692905 76.158165 -14.709138
v 15.772223 66.259476 -10.115968
v 17.335693 146.913712 -10.115964
v 9.256376 138.721756 -14.709132
vn -0.6813 -0.0000 0.7320
vn -0.6065 -0.0000 0.7951
vn -0.9463 -0.0000 0.3233
vn -0.9595 -0.0000 0.2818
vn -0.2473 -0.0000 -0.9689
vn -0.1289 -0.0000 -0.9917
vn 0.3759 -0.0000 -0.9267
vn 0.1338 -0.0000 -0.9910
vn -0.0000 -0.0000 -1.0000
vn 0.1121 -0.0000 -0.9937
vn 0.1082 -0.0000 -0.9941
vn -0.0000 -0.2731 -0.9620
vn -0.0000 0.0070 -1.0000
vn -0.0000 -0.1248 -0.9922
vn 0.9642 -0.0000 -0.2652
vn 0.6590 -0.0000 -0.7521
vn 0.6601 -0.0000 -0.7512
vn 0.9759 -0.0000 -0.2184
vn 0.9541 -0.0000 -0.2995
vn 0.6310 -0.0000 -0.7758
vn 0.7721 -0.0000 -0.6355
vn 0.7721 -0.0000 0.6355
vn 0.6310 -0.0000 0.7758
vn 0.9541 -0.0000 0.2995
vn 0.9759 -0.0000 0.2184
vn 0.9642 -0.0000 0.2652
vn 0.6601 -0.0000 0.7512
vn 0.6590 -0.0000 0.7521
vn -0.2473 -0.0000 0.9689
vn -0.0000 -0.0000 1.0000
vn 0.1082 -0.0000 0.9941
vn 0.1121 -0.0000 0.9937
vn 0.1338 -0.0000 0.9910
vn 0.3759 -0.0000 0.9267
vn -0.1289 -0.0000 0.9917
vn -0.9463 -0.0000 -0.3233
vn -0.9595 -0.0000 -0.2818
vn -0.0000 -0.9600 0.2800
vn -0.0000 -0.9997 -0.0230
vn -0.0000 -0.9994 -0.0351
vn -0.0000 -0.6883 0.7254
vn -0.6065 -0.0000 -0.7951
vn -0.6813 -0.0000 -0.7320
vn 0.6076 -0.0000 -0.7943
vn 0.1291 -0.0000 -0.9916
vn 0.3614 -0.0000 -0.9324
vn 0.7660 -0.0000 -0.6429
vn -0.7729 -0.0000 0.6346
vn -0.3745 -0.0000 0.9272
vn -0.1369 -0.0000 0.9906
vn -0.6317 -0.0000 0.7752
vn -0.0000 -0.2731 0.9620
vn -0.0000 -0.1248 0.9922
vn -0.7049 0.7093 0.0001
vn -0.7049 0.7093 -0.0001
vn -0.7536 0.6573 0.0021
vn -0.7536 0.6573 -0.0021
vn -0.7123 0.7010 0.0346
vn -0.7441 0.6676 0.0261
vn -0.7040 0.7102 -0.0023
vn -0.6995 0.7146 0.0084
vn -0.7441 0.6676 -0.0261
vn -0.7123 0.7010 -0.0346
vn -0.6995 0.7146 -0.0084
vn -0.7040 0.7102 0.0023
vn 0.1291 -0.0000 0.9916
vn 0.3614 -0.0000 0.9324
vn 0.9493 -0.0000 0.3145
vn 0.9493 -0.0000 -0.3145
vn 0.9771 -0.0000 -0.2128
vn 0.9771 -0.0000 0.2128
vn -0.9761 -0.0000 0.2175
vn -0.9543 -0.0000 0.2988
vn -0.7025 0.7117 -0.0000
vn -0.7069 0.7073 -0.0000
vn -0.7303 0.6831 -0.0000
vn -0.7702 0.6378 -0.0000
vn -0.7021 0.7121 -0.0000
vn -0.6964 0.7176 -0.0000
vn 0.6076 -0.0000 0.7943
vn 0.7660 -0.0000 0.6429
vn -0.3745 -0.0000 -0.9272
vn -0.1369 -0.0000 -0.9906
vn -0.7729 -0.0000 -0.6346
vn -0.6317 -0.0000 -0.7752
vn -0.9761 -0.0000 -0.2175
vn -0.9543 -0.0000 -0.2988
vn 0.7496 -0.6243 0.2199
vn 0.7496 -0.6243 -0.2199
vn 0.7505 -0.6240 -0.2176
vn 0.7505 -0.6240 0.2176
vn 0.8468 -0.5054 0.1659
vn 0.7414 -0.5947 0.3108
vn 0.7403 -0.5953 0.3123
vn 0.7414 -0.5947 -0.3108
vn 0.8468 -0.5054 -0.1659
vn 0.7403 -0.5953 -0.3123
vn 0.8746 -0.4638 0.1416
vn 0.8746 -0.4638 -0.1416
vn 0.7817 -0.6176 -0.0864
vn 0.7848 -0.6114 -0.1012
vn 0.8000 -0.5661 -0.1989
vn 0.7817 -0.6176 0.0864
vn 0.7848 -0.6114 0.1012
vn 0.8000 -0.5661 0.1989
vn -0.0000 -0.9997 0.0230
vn -0.0000 -0.9994 0.0351
vn -0.0000 -0.9600 -0.2800
vn -0.0000 -0.6883 -0.7254
vn -0.0000 0.0070 1.0000
vn 0.7464 -0.0123 0.6654
vn 0.9574 -0.0172 0.2884
vn 0.9735 -0.0178 0.2280
vn 0.7619 -0.0125 0.6476
vn 0.9814 0.1894 0.0314
vn 0.9262 -0.3770 0.0019
vn 0.9261 -0.3774 0.0019
vn 0.9813 0.1897 0.0315
vn 0.9261 0.3723 0.0611
vn 0.8702 0.4855 0.0845
vn 0.8702 0.4854 0.0845
vn 0.9262 -0.3770 -0.0019
vn 0.9814 0.1894 -0.0314
vn 0.9813 0.1897 -0.0315
vn 0.9261 -0.3774 -0.0019
vn 0.7116 -0.7026 0.0039
vn 0.7116 -0.7026 -0.0039
vn 0.6634 0.7217 -0.1974
vn 0.6634 0.7217 0.1974
vn 0.6642 0.7215 0.1954
vn 0.6642 0.7215 -0.1954
vn 0.6990 0.6702 0.2493
vn 0.6977 0.6710 0.2509
vn 0.7143 -0.6998 0.0033
vn 0.7117 -0.7025 0.0058
vn 0.8702 0.4854 -0.0845
vn 0.6990 0.6702 -0.2493
vn 0.6977 0.6710 -0.2509
vn 0.8702 0.4855 -0.0845
vn 0.7117 -0.7025 -0.0058
vn 0.7143 -0.6998 -0.0033
vn 0.9261 0.3723 -0.0611
vn 0.9735 -0.0178 -0.2280
vn 0.9574 -0.0172 -0.2884
vn 0.3853 -0.0063 0.9228
vn 0.4300 -0.0070 0.9028
vn -0.0042 0.0002 1.0000
vn 0.7464 -0.0123 -0.6654
vn 0.7619 -0.0125 -0.6476
vn 0.4300 -0.0070 -0.9028
vn 0.3853 -0.0063 -0.9228
vn -0.0042 0.0002 -1.0000
vt 0.000000 0.000000
s 1
f 65/1/1 17/1/2 41/1/3 61/1/4
f 69/1/5 28/1/6 50/1/7 102/1/8 90/1/9 89/1/9 88/1/9 99/1/10 72/1/11 4/1/9
f 20/1/12 73/1/13 77/1/13 81/1/14
f 94/1/15 64/1/15 71/1/16 100/1/17
f 40/1/18 92/1/19 101/1/20 36/1/21
f 46/1/22 98/1/23 91/1/24 39/1/25
f 93/1/26 63/1/26 64/1/15 94/1/15
f 95/1/27 68/1/28 63/1/26 93/1/26
f 66/1/29 1/1/30 67/1/31 96/1/32 85/1/30 86/1/30 87/1/30 97/1/33 25/1/34 44/1/35
f 61/1/4 41/1/3 42/1/36 62/1/37
f 39/1/25 91/1/24 92/1/19 40/1/18
f 31/1/38 14/1/39 80/1/40 83/1/41
f 62/1/37 42/1/36 48/1/42 70/1/43
f 43/1/44 18/1/45 55/1/46 27/1/47
f 49/1/48 37/1/49 54/1/50 52/1/51
f 17/1/2 65/1/1 66/1/29 44/1/35
f 68/1/28 95/1/27 96/1/32 67/1/31
f 98/1/23 46/1/22 25/1/34 97/1/33
f 28/1/6 69/1/5 70/1/43 48/1/42
f 72/1/11 99/1/10 100/1/17 71/1/16
f 102/1/8 50/1/7 36/1/21 101/1/20
f 30/1/52 31/1/38 83/1/41 84/1/53
f 10/1/54 9/1/55 39/1/55 40/1/54
f 11/1/56 12/1/57 42/1/57 41/1/56
f 18/1/58 43/1/59 17/1/59 44/1/58
f 26/1/60 45/1/61 25/1/61 46/1/60
f 29/1/62 47/1/63 28/1/63 48/1/62
f 37/1/64 49/1/65 36/1/65 50/1/64
f 45/1/61 18/1/58 44/1/58 25/1/61
f 43/1/59 11/1/56 41/1/56 17/1/59
f 47/1/63 37/1/64 50/1/64 28/1/63
f 12/1/57 29/1/62 48/1/62 42/1/57
f 9/1/55 26/1/60 46/1/60 39/1/55
f 49/1/65 10/1/54 40/1/54 36/1/65
f 37/1/49 47/1/66 56/1/67 54/1/50
f 12/1/68 11/1/69 59/1/70 60/1/71
f 10/1/72 49/1/48 52/1/51 58/1/73
f 52/1/74 51/1/74 57/1/75 58/1/75
f 38/1/76 60/1/77 59/1/77 27/1/76
f 38/1/76 27/1/76 55/1/78 56/1/78
f 54/1/79 56/1/78 55/1/78 53/1/79
f 52/1/74 54/1/79 53/1/79 51/1/74
f 29/1/80 12/1/68 60/1/71 38/1/81
f 18/1/45 45/1/82 53/1/83 55/1/46
f 45/1/82 26/1/84 51/1/85 53/1/83
f 26/1/84 9/1/86 57/1/87 51/1/85
f 9/1/86 10/1/72 58/1/73 57/1/87
f 11/1/69 43/1/44 27/1/47 59/1/70
f 47/1/66 29/1/80 38/1/81 56/1/67
f 13/1/88 14/1/89 64/1/90 63/1/91
f 20/1/92 19/1/93 68/1/94 67/1/92
f 31/1/95 30/1/96 72/1/96 71/1/97
f 73/1/98 20/1/92 67/1/92 1/1/98
f 19/1/93 13/1/88 63/1/91 68/1/94
f 30/1/96 74/1/99 4/1/99 72/1/96
f 14/1/89 31/1/95 71/1/97 64/1/90
f 80/1/100 75/1/101 76/1/102 84/1/102 83/1/102
f 79/1/103 78/1/104 75/1/101 80/1/100
f 82/1/105 81/1/105 77/1/105 78/1/104 79/1/103
f 14/1/39 13/1/106 79/1/107 80/1/40
f 13/1/106 19/1/108 82/1/109 79/1/107
f 19/1/108 20/1/12 81/1/14 82/1/109
f 74/1/110 30/1/52 84/1/53 76/1/110
f 22/1/111 15/1/112 7/1/113 23/1/114
f 2/1/115 3/1/116 87/1/117 86/1/118
f 85/1/119 96/1/120 21/1/121 2/1/115 86/1/118
f 6/1/122 5/1/123 89/1/124 90/1/125
f 7/1/126 8/1/127 92/1/127 91/1/126
f 16/1/128 15/1/129 93/1/130 94/1/131
f 22/1/132 21/1/121 96/1/120 95/1/133
f 24/1/134 23/1/135 98/1/135 97/1/134
f 33/1/136 32/1/137 100/1/138 99/1/139
f 35/1/140 34/1/141 102/1/141 101/1/140
f 88/1/142 89/1/124 5/1/123 33/1/136 99/1/139
f 3/1/116 24/1/134 97/1/134 87/1/117
f 15/1/129 22/1/132 95/1/133 93/1/130
f 23/1/135 7/1/126 91/1/126 98/1/135
f 34/1/141 6/1/122 90/1/125 102/1/141
f 8/1/143 7/1/113 15/1/112 16/1/144
f 32/1/137 16/1/128 94/1/131 100/1/138
f 8/1/127 35/1/140 101/1/140 92/1/127
f 24/1/145 21/1/146 22/1/111 23/1/114
f 24/1/145 3/1/147 2/1/147 21/1/146
f 16/1/144 32/1/148 35/1/149 8/1/143
f 33/1/150 34/1/151 35/1/149 32/1/148
f 6/1/152 34/1/151 33/1/150 5/1/152
